<svg xmlns="http://www.w3.org/2000/svg" width="22" height="22" viewBox="0 0 22 22"><g><g><path d="M18.78 3.217c-4.29-4.29-11.27-4.29-15.56 0a10.96 10.96 0 0 0-2.977 5.47c-.43 2.018-.29 4.11.409 6.047a.448.448 0 1 0 .842-.304 10.133 10.133 0 0 1-.375-5.556 10.07 10.07 0 0 1 2.735-5.023c3.94-3.942 10.352-3.942 14.293 0a10.05 10.05 0 0 1 2.958 7.026 10.056 10.056 0 0 1-2.843 7.15c-.038.04-.076.081-.115.12-3.94 3.942-10.352 3.942-14.293 0a4.043 4.043 0 0 1-.062-.063 4.91 4.91 0 0 1 .003-.392l.005-.09.01-.177.01-.106c.005-.053.009-.107.015-.16l.014-.112c.006-.05.012-.1.02-.15.005-.039.012-.077.018-.115l.025-.146.023-.115.03-.143.027-.115.035-.14.031-.114.04-.137c.01-.038.023-.075.035-.113l.044-.135.04-.112a8.815 8.815 0 0 1 .145-.372 5.816 5.816 0 0 1 .157-.344 7.98 7.98 0 0 1 .242-.456 8.048 8.048 0 0 1 .355-.552l.068-.095.085-.113c.024-.03.047-.062.072-.092l.089-.11.074-.09a7.59 7.59 0 0 1 .094-.107l.077-.086.099-.105c.026-.028.052-.056.08-.083.033-.035.068-.068.103-.102l.081-.08.109-.1.083-.075.114-.097.085-.071.12-.096.085-.066c.042-.032.086-.063.13-.095l.081-.06.146-.098.072-.049c.064-.041.129-.081.194-.12l.03-.02c.076-.045.152-.089.23-.132l.08-.042c.052-.027.103-.055.155-.081l.102-.05.129-.061A4.377 4.377 0 0 0 11 12.627c1.123 0 2.206-.44 3.018-1.215a7.293 7.293 0 0 1 3.585 3.65.448.448 0 1 0 .82-.361 8.075 8.075 0 0 0-3.808-3.994 4.356 4.356 0 0 0 .759-2.455A4.38 4.38 0 0 0 11 3.876a.448.448 0 0 0 0 .896 3.483 3.483 0 0 1 3.478 3.48 3.47 3.47 0 0 1-.897 2.325A3.483 3.483 0 0 1 11 11.731c-.98 0-1.92-.42-2.581-1.154a3.47 3.47 0 0 1 .134-4.799.448.448 0 0 0-.63-.637 4.344 4.344 0 0 0-1.298 3.11c0 .88.266 1.732.758 2.454l-.013.007c-.035.017-.07.036-.104.054-.053.027-.106.054-.159.083l-.11.062-.146.084-.11.068-.139.086-.11.073-.133.09-.109.077a9.329 9.329 0 0 0-.355.272 9.547 9.547 0 0 0-.222.186l-.1.088a10.02 10.02 0 0 0-.322.306l-.093.095c-.037.037-.072.075-.107.113l-.09.097-.104.12-.083.096c-.035.042-.07.085-.103.128l-.077.095a8.42 8.42 0 0 0-.105.14l-.066.09a7.835 7.835 0 0 0-.13.185l-.034.049a7.959 7.959 0 0 0-.154.239l-.05.084a7.622 7.622 0 0 0-.096.162c-.02.034-.038.068-.056.103a6.696 6.696 0 0 0-.081.148c-.02.037-.038.074-.057.112a7.147 7.147 0 0 0-.072.144l-.054.117c-.022.048-.045.096-.066.145a5.683 5.683 0 0 0-.11.265 7.401 7.401 0 0 0-.145.396 8.156 8.156 0 0 0-.265.996l-.026.129-.027.162-.02.127-.022.168-.016.124-.016.177c-.004.04-.008.079-.01.118-.005.066-.008.133-.012.199l-.005.098a8.39 8.39 0 0 0 .003.623.456.456 0 0 0 .01.076v.007a.453.453 0 0 0 .023.07l.003.007c.01.022.021.043.034.064l.005.007a.44.44 0 0 0 .044.056l.004.004.059.063a5.5 5.5 0 0 0 .135.142A10.968 10.968 0 0 0 11 22c2.818 0 5.635-1.072 7.78-3.218a5.5 5.5 0 0 0 .136-.142l.059-.063A10.947 10.947 0 0 0 22 10.867a10.94 10.94 0 0 0-3.22-7.65z"/></g></g></svg>