<svg xmlns="http://www.w3.org/2000/svg" width="63" height="76" viewBox="0 0 63 76"><g><g><path fill="#343640" d="M40.066 50.35c.55 1.125.84 2.163.862 3.094.04 2.202-.662 4.115-2.089 5.69-.95 1.076-2.295 1.845-3.99 2.28a10.01 10.01 0 0 1-.622.135v3.189c-.01.636-.464 1.297-1.281 1.297-.124 0-.279.003-.447.005-.21.004-.44.007-.661.007-.216 0-.423-.003-.595-.013a1.29 1.29 0 0 1-.916-.43 1.365 1.365 0 0 1-.322-.94V61.65c-1.454-.187-2.718-.614-3.767-1.274a8.294 8.294 0 0 1-2.947-3.096c-.639-1.158-1.212-3.482-1.212-4.09-.002-.452.187-.74.347-.9.214-.215.516-.339.827-.339h.003l4.04-.24c.065-.012.145-.02.235-.02.536 0 .98.317 1.159.828.02.058.046.14.079.246.59 1.886.997 2.532 1.236 2.743.437.398.912.588 1.457.588l.089-.002c.89-.022 1.544-.356 2.072-1.052.235-.298.35-.756.35-1.376 0-.923-.555-1.892-1.648-2.88l-.934-.732c-.95-.746-2.172-1.703-3.661-2.874-1.786-1.433-3.078-2.749-3.845-3.916a8.349 8.349 0 0 1-1.29-4.48c0-2.894 1.195-5.121 3.552-6.62 1.098-.676 2.392-1.098 3.861-1.26.004-1.075.006-2.571-.002-2.827-.012-.34.103-.654.325-.883a1.24 1.24 0 0 1 .89-.363H32.893a1.16 1.16 0 0 1 .12-.005c.659 0 1.157.475 1.212 1.155.03.35.02 2.09.01 3.145a9.483 9.483 0 0 1 2.356.818 7.413 7.413 0 0 1 2.806 2.516c.628.95 1.208 2.641 1.225 3.308.02.82-.502 1.3-1.042 1.363l-4.114.622a1.28 1.28 0 0 1-.325.042c-.548 0-1.138-.384-1.218-1.243-.04-.411-.453-1.275-.877-1.692-.31-.308-.802-.463-1.463-.463-.67 0-1.139.22-1.477.691-.297.414-.441.936-.441 1.599 0 1.069.598 2.207 1.78 3.383.477.482 1.21 1.058 2.184 1.719 1.26.871 2.067 1.463 2.47 1.813 1.33 1.103 2.381 2.22 3.115 3.31.326.477.614.962.853 1.438zm-.845 3.13c-.016-.677-.247-1.478-.686-2.374-.2-.4-.448-.819-.735-1.238-.646-.96-1.588-1.955-2.805-2.966-.366-.316-1.146-.887-2.331-1.707-1.059-.718-1.878-1.366-2.428-1.921-1.51-1.503-2.279-3.048-2.279-4.586 0-1.019.256-1.89.762-2.593.657-.917 1.647-1.403 2.863-1.403 1.128 0 2.024.322 2.663.957.58.57 1.118 1.562 1.31 2.367l3.303-.5c-.136-.531-.491-1.52-.885-2.115a5.646 5.646 0 0 0-2.166-1.942c-.715-.369-1.578-.632-2.563-.782a.852.852 0 0 1-.724-.852c.014-1.242.022-2.606.014-3.289h-.818c.004.976-.004 2.896-.005 3.161a.853.853 0 0 1-.815.848c-1.514.068-2.808.427-3.844 1.065-1.849 1.175-2.751 2.87-2.751 5.175 0 1.291.334 2.456 1.021 3.561.658 1 1.83 2.184 3.47 3.5 1.48 1.165 2.702 2.122 3.651 2.867l.958.75c.015.012.03.024.043.037 1.482 1.331 2.234 2.733 2.234 4.166 0 1.014-.237 1.828-.706 2.42-.831 1.097-1.969 1.678-3.37 1.712-.04.002-.09.002-.14.002-.975 0-1.849-.344-2.596-1.022-.738-.652-1.262-2.043-1.678-3.353l-3.331.199c.151.725.52 2.095.927 2.832a6.533 6.533 0 0 0 2.354 2.472c1.002.632 2.27 1 3.777 1.098.448.03.796.401.796.85v3.467c.249.003.518-.003.76-.006l.05-.001-.001-3.52c0-.433.325-.796.755-.846.4-.047.79-.116 1.153-.209 1.354-.347 2.41-.94 3.138-1.763 1.149-1.269 1.688-2.744 1.655-4.518zM63 46.501C63 62.767 48.87 76 31.502 76 14.132 76 0 62.767 0 46.501c0-7.405 2.974-14.495 8.374-19.97 1.329-1.628 2.727-2.999 4.206-4.45 2.222-2.178 4.734-4.644 7.571-8.568-.137-.358-.22-.797-.22-1.34 0-.359-.004-.468-.008-.587-.007-.172-.015-.362-.011-1.22 0-.051.004-.101.013-.15.017-.562.123-1.012.29-1.365l-3.64-7.632A.852.852 0 0 1 17.345 0h26.693a.852.852 0 0 1 .779 1.2l-3.531 7.9c.148.443.174.912.173 1.283.002.083.001.191 0 .302v.16c0 .024 0 .049-.003.073.001.379.004.507.007.625.004.13.007.25.007.64 0 .457-.054.832-.142 1.145 3.06 3.539 5.718 6.013 8.065 8.197 1.27 1.182 2.47 2.299 3.66 3.505C59.467 30.676 63 38.3 63 46.501zm-23.325-33.57c.041-.12.089-.34.089-.748 0-.365-.003-.476-.006-.598-.003-.132-.007-.277-.008-.739a.8.8 0 0 1 .004-.08v-.088-.284c0-.325-.03-.53-.062-.664H21.7c-.038.139-.07.342-.07.636a.843.843 0 0 1-.013.143c-.002.69.004.856.01 1.008.006.133.01.256.01.658 0 .392.057.627.11.756zM18.696 1.705L21.6 7.793c.09-.013.18-.021.27-.021.35.003.81.003 1.319.003l16.27.009c.194 0 .365.024.52.062l2.744-6.141zM61.295 46.5c0-7.713-3.336-14.89-9.392-20.21a.836.836 0 0 1-.045-.044c-1.17-1.188-2.363-2.298-3.627-3.475-2.334-2.171-4.97-4.624-8.014-8.123-.265.1-.529.131-.75.131h-.006a578.9 578.9 0 0 0-2.974 0c-5.654-.007-10.53-.01-13.295-.01h-1.314c-.161 0-.324-.022-.484-.065-2.863 3.93-5.385 6.403-7.619 8.593-1.454 1.426-2.828 2.773-4.104 4.34a.972.972 0 0 1-.055.062c-5.1 5.159-7.91 11.835-7.91 18.802 0 15.326 13.366 27.794 29.796 27.794 16.427 0 29.792-12.468 29.793-27.795zM7.233 35.61C9.658 28.4 22.406 18.593 22.948 18.179a.854.854 0 0 1 1.037 1.354c-.128.098-12.875 9.905-15.135 16.62a.854.854 0 0 1-1.617-.543zm14.385 33.853a.852.852 0 0 1-1.123.44C3.11 62.302 3.345 44.772 3.35 44.595a.853.853 0 1 1 1.705.042c-.015.683-.184 16.574 16.124 23.702a.851.851 0 0 1 .44 1.123zm-.288-65.93a.852.852 0 1 1 1.549-.715l1.362 2.949a.852.852 0 1 1-1.549.714z"/></g></g></svg>