<svg xmlns="http://www.w3.org/2000/svg" width="57" height="81" viewBox="0 0 57 81"><g><g><path fill="#343640" d="M57 53.069c0 15.401-12.785 27.93-28.5 27.93S0 68.47 0 53.07s12.785-27.931 28.5-27.931c.866 0 1.729.05 2.59.13.172.015.343.027.514.045a28.944 28.944 0 0 1 3.08.508c.633.14 1.263.294 1.886.476.376.11.744.233 1.114.357a29.136 29.136 0 0 1 2.829 1.123c.27.125.544.242.812.375v-13.88c0-6.329-5.753-11.479-12.825-11.479-7.072 0-12.825 5.15-12.825 11.48 0 .772-.637 1.396-1.425 1.396s-1.425-.624-1.425-1.396C12.825 6.403 19.857 0 28.5 0s15.675 6.403 15.675 14.273v15.493C51.893 34.769 57 43.34 57 53.069zm-2.85 0c0-9.13-5.009-17.115-12.459-21.518a26.167 26.167 0 0 0-4.85-2.23 24.89 24.89 0 0 0-1.175-.373 25.608 25.608 0 0 0-2.562-.59 25.88 25.88 0 0 0-2.323-.314 26.261 26.261 0 0 0-2.281-.113c-14.143 0-25.65 11.277-25.65 25.138 0 13.86 11.507 25.138 25.65 25.138 14.143 0 25.65-11.277 25.65-25.138zm-7.125 0c0 .772-.637 1.397-1.425 1.397h-4.36a12.378 12.378 0 0 1-2.73 6.44L41.6 63.93a1.375 1.375 0 0 1 0 1.975c-.278.272-.643.41-1.008.41s-.73-.138-1.007-.41l-3.088-3.026a12.9 12.9 0 0 1-6.571 2.676v4.272c0 .772-.637 1.396-1.425 1.396s-1.425-.624-1.425-1.396v-4.272a12.9 12.9 0 0 1-6.57-2.676l-3.089 3.026c-.277.272-.642.41-1.007.41-.365 0-.73-.138-1.008-.41a1.375 1.375 0 0 1 0-1.975l3.088-3.026a12.378 12.378 0 0 1-2.73-6.44H11.4c-.788 0-1.425-.624-1.425-1.396 0-.772.637-1.397 1.425-1.397h4.359a12.379 12.379 0 0 1 2.73-6.44l-3.088-3.026a1.375 1.375 0 0 1 0-1.974 1.444 1.444 0 0 1 2.015 0l3.088 3.026a12.898 12.898 0 0 1 6.571-2.675V36.31c0-.772.637-1.396 1.425-1.396s1.425.624 1.425 1.396v4.273c2.47.269 4.725 1.228 6.57 2.675l3.089-3.026a1.444 1.444 0 0 1 2.015 0 1.375 1.375 0 0 1 0 1.974l-3.088 3.027a12.379 12.379 0 0 1 2.73 6.44H45.6c.788 0 1.425.624 1.425 1.396zm-8.55 0c0-5.39-4.476-9.776-9.975-9.776-5.5 0-9.975 4.387-9.975 9.776 0 5.39 4.476 9.776 9.975 9.776 5.5 0 9.975-4.387 9.975-9.776z"/></g></g></svg>