<svg xmlns="http://www.w3.org/2000/svg" width="71" height="72" viewBox="0 0 71 72"><g><g><path fill="#343640" d="M71 6.002v19.205c0 3.714-1.166 6.481-3.902 9.252L31.903 70.156a5.852 5.852 0 0 1-4.19 1.759 5.846 5.846 0 0 1-4.19-1.758L1.737 48.09A5.999 5.999 0 0 1 0 43.844a6 6 0 0 1 1.736-4.243L32.518 8.464C24.472 6.611 19.474 6.485 18.011 6.92c.618.64 2.542 1.998 7.184 3.853.607.242.906.94.667 1.556a1.18 1.18 0 0 1-1.538.677c-9.608-3.838-9.046-5.964-8.834-6.764.44-1.669 2.783-2.225 7.598-1.797 3.915.345 8.97 1.323 14.234 2.75 3.44.935 20.544 5.815 19.377 10.232-.427 1.61-2.644 1.807-3.373 1.873a1.192 1.192 0 0 1-1.285-1.091 1.196 1.196 0 0 1 1.076-1.3 5.645 5.645 0 0 0 1.059-.177c-.508-.536-1.791-1.375-3.844-2.37a4.839 4.839 0 0 0-.663 2.443c0 2.648 2.126 4.801 4.74 4.801 2.614 0 4.74-2.153 4.74-4.801s-2.126-4.802-4.74-4.802a1.193 1.193 0 0 1-1.185-1.2c0-.662.53-1.2 1.185-1.2 3.921 0 7.11 3.23 7.11 7.202s-3.189 7.202-7.11 7.202c-3.921 0-7.11-3.23-7.11-7.202 0-1.204.312-2.377.87-3.422-2.835-1.208-6.64-2.56-11.461-3.868-.508-.138-.998-.264-1.486-.39L3.412 41.299a3.596 3.596 0 0 0-1.042 2.545 3.6 3.6 0 0 0 1.042 2.547l21.787 22.07c1.34 1.358 3.684 1.36 5.027 0l35.195-35.7c2.31-2.338 3.209-4.455 3.209-7.554V6.002c0-1.986-1.595-3.601-3.555-3.601H46.114c-3.058 0-5.15.91-7.458 3.25-.463.469-1.212.469-1.676 0a1.21 1.21 0 0 1 0-1.698C39.715 1.183 42.447 0 46.114 0h18.96C68.343 0 71 2.692 71 6.002zm-9.088 39.543l-13.58 23.462A5.908 5.908 0 0 1 43.196 72a5.82 5.82 0 0 1-2.953-.803l-2.699-1.77a1.21 1.21 0 0 1-.35-1.66 1.174 1.174 0 0 1 1.639-.354l2.647 1.737c1.646.963 3.823.37 4.804-1.35l13.584-23.468a1.175 1.175 0 0 1 1.622-.429c.564.335.752 1.07.422 1.642zM29.522 33.61c.656 0 1.185.538 1.185 1.2v16.806c0 .662-.53 1.2-1.184 1.2a1.192 1.192 0 0 1-1.186-1.2V34.81c0-.662.53-1.2 1.186-1.2zm8.296 2.4c1.307 0 2.37 1.078 2.37 2.402s-1.063 2.4-2.37 2.4c-1.307 0-2.37-1.077-2.37-2.4 0-1.325 1.063-2.401 2.37-2.401zm-16.591 7.203c1.307 0 2.37 1.077 2.37 2.4 0 1.325-1.063 2.402-2.37 2.402-1.307 0-2.37-1.077-2.37-2.401 0-1.324 1.063-2.401 2.37-2.401z"/></g></g></svg>