<svg xmlns="http://www.w3.org/2000/svg" width="53" height="16" viewBox="0 0 53 16"><g><g><path fill="#fff" d="M50.89 8.741l1.716 3.02h-1.768l-.889-1.647-.593-1.1h-1.312v2.747H46.44V4.34h3.01c.431 0 .817.05 1.159.151.34.101.636.254.885.458.248.204.436.453.561.744.125.291.186.623.186.995 0 .517-.124.958-.376 1.314a2.068 2.068 0 0 1-.975.74zm-.52-1.622c.048-.124.073-.271.073-.441 0-.17-.025-.318-.074-.445a.831.831 0 0 0-.216-.321.925.925 0 0 0-.363-.199 1.792 1.792 0 0 0-.525-.069h-1.374V7.69h1.374c.203 0 .378-.023.526-.066a.936.936 0 0 0 .364-.193.784.784 0 0 0 .214-.312z"/></g><g><path fill="#fff" d="M27.325 4.31l2.82 7.515h-1.649l-.565-1.475h-3.046l-.566 1.475H22.67l2.82-7.515zm-2.016 4.681h2.197l-1.099-2.975z"/></g><g><path fill="#fff" d="M44.157 5.922c.147.363.226.779.24 1.246.014.403.021.702.021.897 0 .19-.007.484-.021.886-.014.478-.092.9-.234 1.264a2.404 2.404 0 0 1-.625.919c-.273.246-.598.43-.975.552-.092.03-.188.056-.287.08-.302.069-.633.103-.992.103-.362 0-.695-.034-.998-.104a3.5 3.5 0 0 1-.289-.079 2.802 2.802 0 0 1-.526-.23 2.395 2.395 0 0 1-1.067-1.242 3.765 3.765 0 0 1-.234-1.263c-.007-.202-.01-.497-.01-.886 0-.395.003-.694.01-.897.014-.467.093-.883.24-1.246.144-.362.357-.672.635-.925.277-.253.604-.443.978-.568a3.33 3.33 0 0 1 .295-.085c.296-.07.618-.104.966-.104.345 0 .665.035.96.104.1.024.199.052.294.085.373.125.7.315.979.568.28.253.494.562.64.925zm-1.415 2.966c.014-.414.02-.695.02-.838 0-.158-.006-.438-.02-.839a2.47 2.47 0 0 0-.123-.723 1.324 1.324 0 0 0-.302-.502 1.281 1.281 0 0 0-.455-.3 1.606 1.606 0 0 0-.583-.1c-.22 0-.418.034-.592.1a1.274 1.274 0 0 0-.456.3c-.13.132-.23.298-.3.502-.07.203-.109.444-.116.722v.001c-.006.2-.01.48-.01.839 0 .352.004.632.01.838.007.28.046.52.115.724.068.203.167.37.295.502.13.133.281.232.455.299.175.066.375.1.599.1.224 0 .423-.033.597-.1.174-.065.323-.163.45-.294.127-.13.226-.296.295-.5.07-.205.11-.449.121-.73z"/></g><g><path fill="#fff" d="M31.63 4.34h5.674v1.393l-4.09.005v1.817h2.654V8.94l-2.655.001v2.82H31.63z"/></g><g><path fill="#fff" d="M19.95 7.888c.372.177.652.403.834.68.182.278.271.629.271 1.047 0 .463-.128.87-.382 1.212-.255.341-.614.6-1.07.777-.457.177-.983.265-1.578.265-.315 0-.608-.023-.88-.071a3.442 3.442 0 0 1-.747-.215 2.761 2.761 0 0 1-.772-.474 1.98 1.98 0 0 1-.173-.175l-.042-.049a1.503 1.503 0 0 1-.068-.088l-.024-.034-.012-.017-.029-.044a2.142 2.142 0 0 1-.132-.24l-.004-.008a1.278 1.278 0 0 1-.044-.107l-.013-.034a1.163 1.163 0 0 1-.037-.114l-.002-.01a2.71 2.71 0 0 1-.096-.695h1.598a1.725 1.725 0 0 0 .055.237l.003.01c.064.218.208.401.444.554.23.15.553.229.975.228.477 0 .83-.08 1.058-.232a.77.77 0 0 0 .253-.266.711.711 0 0 0 .042-.58.547.547 0 0 0-.124-.186c-.114-.115-.295-.22-.542-.312-.249-.092-.623-.205-1.12-.336-.823-.196-1.43-.454-1.825-.784a1.572 1.572 0 0 1-.448-.609 2.113 2.113 0 0 1-.148-.817c0-.415.115-.79.345-1.117.23-.327.558-.583.98-.768.422-.184.912-.276 1.467-.276.582 0 1.09.102 1.52.309a2.643 2.643 0 0 1 .906.678 2.265 2.265 0 0 1 .076.098l.034.047.007.011c.09.133.162.265.214.398l.005.01a.994.994 0 0 1 .034.099l.01.038a2.042 2.042 0 0 1 .04.166c.025.135.037.287.031.458h-1.655a1.032 1.032 0 0 0-.018-.272.59.59 0 0 0-.088-.215l-.003-.004-.02-.029a.922.922 0 0 0-.258-.233c-.222-.14-.5-.213-.835-.213-.373 0-.658.072-.86.207a.648.648 0 0 0-.223.242.723.723 0 0 0-.074.334c0 .174.05.31.149.423.1.112.264.218.493.309.23.092.571.197 1.02.314.618.14 1.112.296 1.483.473z"/></g><g><path fill="#fff" d="M9.555 1.886a5.363 5.363 0 0 1 1.331 3.628 5.392 5.392 0 0 1-.17 1.272c-.043.18-.088.357-.136.533l-.028-.009-1.555-.522a17.936 17.936 0 0 0 .147-.596c.051-.245.078-.498.078-.757 0-2.037-1.64-3.688-3.664-3.688a3.668 3.668 0 0 0-3.53 2.703 3.709 3.709 0 0 0 .05 2.137L7.656 8.46l.708.238 1.112.373.472.158a18.44 18.44 0 0 1-.674 1.51l-.013.027a18.413 18.413 0 0 1-2.534 3.787c-.368.425-.756.833-1.16 1.223a18.494 18.494 0 0 1-3.918-5.444l2.316.778a16.783 16.783 0 0 0 1.605 2.22l.157-.187a16.893 16.893 0 0 0 1.933-2.914L2.75 8.675.934 8.101l-.186-.058-.047-.15c-.126-.41-.238-.826-.337-1.247h.001A5.409 5.409 0 0 1 1.55 1.9 5.3 5.3 0 0 1 5.559.07a5.3 5.3 0 0 1 3.996 1.816z"/></g><g><path fill="#fff" d="M3.638 4.987A2 2 0 0 1 5.557 3.54c1.103 0 1.998.9 1.998 2.012 0 .248-.045.486-.127.707l-.02-.007L3.62 5.055l.018-.068z"/></g></g></svg>