<svg xmlns="http://www.w3.org/2000/svg" width="17" height="16" viewBox="0 0 17 16"><g><g><path d="M15.185 2.97v1.503c0 .491-.414.891-.924.891H12.7c-.51 0-.925-.4-.925-.89V2.97c0-.492.416-.891.925-.891h1.56c.51 0 .924.4.924.89zm-.81 0a.113.113 0 0 0-.114-.111H12.7a.113.113 0 0 0-.115.11v1.504c0 .061.052.11.115.11h1.56c.064 0 .115-.049.115-.11zm2.626.543v8.974c0 1.936-1.635 3.511-3.644 3.511H3.643C1.634 15.998 0 14.423 0 12.487V3.513C0 1.577 1.634 0 3.643 0h9.714c2.01 0 3.644 1.576 3.644 3.512zm-.81 3.121h-4.08a4.567 4.567 0 0 1 1.246 3.121c0 2.582-2.178 4.683-4.857 4.683-2.678 0-4.857-2.1-4.857-4.683 0-1.2.475-2.291 1.247-3.121H.81v5.853c0 1.506 1.27 2.731 2.833 2.731h9.714c1.563 0 2.834-1.225 2.834-2.731zM4.452 9.755c0 2.152 1.816 3.902 4.048 3.902s4.048-1.75 4.048-3.902c0-2.151-1.816-3.901-4.048-3.901s-4.048 1.75-4.048 3.901zm11.74-6.242c0-1.506-1.272-2.732-2.835-2.732H3.643C2.08.781.809 2.007.809 3.513v2.34h5.012a4.958 4.958 0 0 1 2.68-.78c.99 0 1.91.289 2.679.78h5.011zM5.666 9.755c0-1.506 1.27-2.73 2.833-2.73 1.563 0 2.834 1.224 2.834 2.73 0 1.507-1.271 2.732-2.834 2.732-1.562 0-2.833-1.225-2.833-2.732zm.81 0c0 1.076.907 1.951 2.023 1.951s2.024-.875 2.024-1.95c0-1.076-.908-1.951-2.024-1.951s-2.024.875-2.024 1.95z"/></g></g></svg>