<svg xmlns="http://www.w3.org/2000/svg" width="18" height="18" viewBox="0 0 18 18"><g><g opacity=".5"><path fill="#fff" d="M15.596 13.915c.156-.443.26-1.147.312-2.111.026-.573.04-1.381.04-2.424V8.13a55.34 55.34 0 0 0-.04-2.424c-.052-.99-.156-1.694-.312-2.11a2.821 2.821 0 0 0-1.681-1.682c-.417-.156-1.12-.26-2.111-.312a57.03 57.03 0 0 0-2.424-.04H8.13c-1.043 0-1.85.014-2.424.04-.964.052-1.668.156-2.11.312a2.821 2.821 0 0 0-1.682 1.681c-.156.417-.26 1.12-.312 2.111a57.03 57.03 0 0 0-.04 2.424v1.25c0 1.043.014 1.85.04 2.424.052.964.156 1.668.312 2.11.34.809.9 1.369 1.681 1.682.443.156 1.147.26 2.111.312.573.026 1.381.04 2.424.04h1.25a55.34 55.34 0 0 0 2.424-.04c.99-.052 1.694-.156 2.11-.312.809-.34 1.369-.9 1.682-1.681zm1.865-8.798c.026.73.039 1.94.039 3.633s-.02 2.91-.059 3.652c-.039.743-.15 1.387-.332 1.934a4.553 4.553 0 0 1-1.074 1.7 4.553 4.553 0 0 1-1.7 1.073c-.546.183-1.19.293-1.933.332-.742.04-1.96.059-3.652.059-1.693 0-2.91-.02-3.652-.059-.743-.039-1.387-.162-1.934-.37a4.164 4.164 0 0 1-1.7-1.036 4.553 4.553 0 0 1-1.073-1.7c-.183-.546-.293-1.19-.332-1.933C.019 11.66 0 10.442 0 8.75c0-1.693.02-2.91.059-3.652.039-.743.15-1.387.332-1.934a4.553 4.553 0 0 1 1.074-1.7A4.553 4.553 0 0 1 3.164.392C3.711.208 4.355.098 5.098.059 5.84.019 7.058 0 8.75 0c1.693 0 2.91.02 3.652.059.742.039 1.387.15 1.934.332a4.553 4.553 0 0 1 1.7 1.074c.48.482.839 1.048 1.073 1.699.183.547.3 1.198.352 1.953zm-2.969-1.055a1.217 1.217 0 0 1-.332.743.951.951 0 0 1-.723.312c-.286 0-.533-.104-.742-.312a1.014 1.014 0 0 1-.312-.743c0-.286.104-.533.312-.742.209-.208.456-.312.742-.312.287 0 .534.104.743.312.208.209.312.456.312.742zM8.75 11.68c.807 0 1.497-.287 2.07-.86.573-.573.86-1.263.86-2.07 0-.807-.287-1.497-.86-2.07a2.822 2.822 0 0 0-2.07-.86c-.807 0-1.497.287-2.07.86a2.822 2.822 0 0 0-.86 2.07c0 .807.287 1.497.86 2.07.573.573 1.263.86 2.07.86zm0-7.422c.807 0 1.556.202 2.246.605.69.404 1.237.95 1.64 1.64.404.691.606 1.44.606 2.247 0 .807-.202 1.556-.605 2.246a4.506 4.506 0 0 1-1.64 1.64 4.371 4.371 0 0 1-2.247.606 4.371 4.371 0 0 1-2.246-.605 4.505 4.505 0 0 1-1.64-1.64 4.371 4.371 0 0 1-.606-2.247c0-.807.202-1.556.605-2.246.404-.69.95-1.237 1.64-1.64a4.371 4.371 0 0 1 2.247-.606z"/></g></g></svg>