<svg xmlns="http://www.w3.org/2000/svg" width="14" height="14" viewBox="0 0 14 14"><g><g opacity=".5"><path fill="#fff" d="M14 14h-2.906V9.437c0-.75-.063-1.291-.188-1.625-.229-.562-.677-.843-1.344-.843-.666 0-1.135.25-1.406.75-.208.375-.312.927-.312 1.656V14H4.969V4.656H7.75v1.281h.031c.209-.416.542-.76 1-1.03.5-.334 1.084-.5 1.75-.5 1.354 0 2.302.426 2.844 1.28.417.688.625 1.75.625 3.188zM1.687 3.375c-.458 0-.854-.167-1.187-.5-.333-.333-.5-.73-.5-1.187C0 1.229.167.833.5.5.833.167 1.23 0 1.688 0c.458 0 .854.167 1.187.5.333.333.5.73.5 1.188 0 .458-.167.854-.5 1.187-.333.333-.73.5-1.188.5zM3.115 14H.219V4.656h2.896z"/></g></g></svg>