<svg xmlns="http://www.w3.org/2000/svg" width="27" height="21" viewBox="0 0 27 21"><g><g><path d="M26.952 6.464l-2.422 7.56A1.593 1.593 0 0 1 23 15.12h-14c-.762 0-1.42-.504-1.597-1.226L4.206.906A.086.086 0 0 0 4.124.84H.435A.428.428 0 0 1 0 .42C0 .188.195 0 .435 0h3.69c.444 0 .826.293.929.713L8.249 13.7c.085.341.393.58.75.58h14a.73.73 0 0 0 .7-.504l2.421-7.56a.18.18 0 0 0-.17-.235H9.803a.428.428 0 0 1-.435-.42c0-.232.195-.42.435-.42H25.95c.334 0 .65.156.848.417.196.26.254.598.155.906zm-5.43 4.456c.24 0 .435.188.435.42 0 .232-.194.42-.435.42h-9.076a.428.428 0 0 1-.436-.42c0-.232.195-.42.436-.42zm.907-1.68H11.54a.428.428 0 0 1-.436-.42c0-.232.194-.42.435-.42H22.43c.241 0 .436.188.436.42 0 .232-.195.42-.436.42zm-7.623 9.66c0 1.158-.977 2.1-2.177 2.1-1.2 0-2.178-.942-2.178-2.1 0-1.158.977-2.1 2.178-2.1 1.2 0 2.177.942 2.177 2.1zm-.87 0c0-.695-.587-1.26-1.307-1.26s-1.307.565-1.307 1.26c0 .695.587 1.26 1.307 1.26s1.306-.565 1.306-1.26zm7.838 0c0 1.158-.977 2.1-2.177 2.1-1.201 0-2.178-.942-2.178-2.1 0-1.158.977-2.1 2.178-2.1 1.2 0 2.177.942 2.177 2.1zm-.871 0c0-.695-.586-1.26-1.306-1.26-.72 0-1.307.565-1.307 1.26 0 .695.586 1.26 1.307 1.26.72 0 1.306-.565 1.306-1.26z"/></g></g></svg>