<svg xmlns="http://www.w3.org/2000/svg" width="17" height="19" viewBox="0 0 17 19"><g><g opacity=".5"><path fill="#fff" d="M15.14 15.09c.152-.48.254-1.244.304-2.29.025-.62.038-1.497.038-2.627V8.817a67.03 67.03 0 0 0-.038-2.628c-.05-1.074-.152-1.837-.303-2.289-.304-.876-.848-1.483-1.632-1.822-.405-.17-1.088-.283-2.05-.34a49.582 49.582 0 0 0-2.352-.042H7.893c-1.012 0-1.796.015-2.353.043-.936.056-1.619.17-2.049.339-.784.339-1.328.946-1.632 1.822-.151.452-.253 1.215-.303 2.29a69.053 69.053 0 0 0-.038 2.627v1.356c0 1.13.013 2.006.038 2.628.05 1.045.152 1.808.303 2.289.33.876.873 1.483 1.632 1.822.43.17 1.113.283 2.05.34.556.027 1.34.042 2.352.042h1.214c1.037 0 1.822-.015 2.353-.043.961-.056 1.644-.17 2.049-.339.784-.367 1.328-.975 1.632-1.822zm1.822-9.534c.025.791.038 2.106.038 3.944s-.019 3.16-.057 3.965c-.038.806-.145 1.506-.322 2.1a5.053 5.053 0 0 1-1.044 1.845 4.392 4.392 0 0 1-1.65 1.166c-.532.198-1.158.318-1.879.36-.721.043-1.904.064-3.548.064-1.644 0-2.827-.021-3.548-.064-.721-.042-1.347-.176-1.878-.403a3.996 3.996 0 0 1-1.651-1.123 5.053 5.053 0 0 1-1.044-1.845c-.177-.594-.284-1.294-.322-2.1C.019 12.66 0 11.338 0 9.5s.019-3.16.057-3.965c.038-.806.145-1.506.322-2.1A5.053 5.053 0 0 1 1.423 1.59 4.392 4.392 0 0 1 3.073.424C3.606.226 4.232.106 4.953.064 5.673.02 6.856 0 8.5 0c1.644 0 2.827.021 3.548.064.721.042 1.347.162 1.878.36a4.392 4.392 0 0 1 1.651 1.166 5.053 5.053 0 0 1 1.044 1.845c.177.594.29 1.3.341 2.12zM14.078 4.41c-.025.31-.133.58-.322.806a.882.882 0 0 1-.702.339.937.937 0 0 1-.721-.34 1.168 1.168 0 0 1-.304-.805c0-.311.101-.58.304-.806a.937.937 0 0 1 .72-.34c.279 0 .52.114.722.34.202.226.303.495.303.806zm-5.573 8.27c.786 0 1.457-.311 2.015-.933.557-.622.836-1.372.836-2.248 0-.876-.279-1.626-.836-2.248-.558-.622-1.23-.933-2.015-.933-.786 0-1.457.311-2.015.933-.557.622-.836 1.372-.836 2.248 0 .876.279 1.626.836 2.248.558.622 1.23.933 2.015.933zm-.01-8.058a3.9 3.9 0 0 1 2.18.658 4.67 4.67 0 0 1 1.591 1.783c.392.75.588 1.564.588 2.441 0 .877-.196 1.691-.588 2.441a4.67 4.67 0 0 1-1.592 1.783 3.9 3.9 0 0 1-2.179.658 3.9 3.9 0 0 1-2.18-.658 4.67 4.67 0 0 1-1.591-1.783 5.195 5.195 0 0 1-.588-2.441c0-.877.196-1.691.588-2.441A4.67 4.67 0 0 1 6.316 5.28a3.9 3.9 0 0 1 2.179-.658z"/></g></g></svg>