<svg xmlns="http://www.w3.org/2000/svg" width="17" height="15" viewBox="0 0 17 15"><g><g><path d="M16.83 6.171c-.353 1.418-1.167 2.708-2.355 3.73L8.45 15 2.524 9.9C1.336 8.878.522 7.589.169 6.17c-.244-.982-.164-1.585-.144-1.7C.273 1.88 2.207-.003 4.627-.003c1.586 0 3.002.807 3.825 2.144a4.626 4.626 0 0 1 3.92-2.143c2.42 0 4.354 1.88 4.602 4.473.02.115.1.718-.144 1.7zm-.501-1.603c-.217-2.3-1.88-3.95-3.957-3.95-1.569 0-2.99.916-3.62 2.332l-.301.678-.301-.678C7.51 1.512 6.16.618 4.627.618 2.549.618.887 2.267.675 4.538L.67 4.57c0 .003-.095.529.136 1.459.322 1.295 1.068 2.474 2.157 3.41l5.49 4.728 5.584-4.729c1.088-.934 1.834-2.114 2.156-3.409.231-.93.136-1.456.136-1.46z"/></g></g></svg>