<svg xmlns="http://www.w3.org/2000/svg" width="14" height="16" viewBox="0 0 14 16"><g><g opacity=".5"><path fill="#fff" d="M14 16h-2.906v-5.214c0-.857-.063-1.476-.188-1.857-.229-.643-.677-.965-1.344-.965-.666 0-1.135.286-1.406.857-.208.429-.312 1.06-.312 1.893V16H4.969V5.321H7.75v1.465h.031a2.723 2.723 0 0 1 1-1.179c.5-.38 1.084-.571 1.75-.571 1.354 0 2.302.488 2.844 1.464.417.786.625 2 .625 3.643zM1.687 3.857c-.458 0-.854-.19-1.187-.571A1.993 1.993 0 0 1 0 1.929C0 1.405.167.952.5.57.833.191 1.23 0 1.688 0c.458 0 .854.19 1.187.571.333.381.5.834.5 1.358 0 .523-.167.976-.5 1.357-.333.38-.73.571-1.188.571zM3.125 16H.219V5.321h2.906z"/></g></g></svg>