<svg xmlns="http://www.w3.org/2000/svg" width="66" height="20" viewBox="0 0 66 20"><g><g><path fill="#fff" d="M63.613 10.932l2.144 3.774h-2.21l-1.11-2.059-.741-1.374h-1.641v3.433H58.05V5.43h3.762c.54 0 1.022.062 1.449.189.426.126.795.317 1.106.572.311.255.546.567.702.93.156.364.233.78.233 1.244 0 .646-.156 1.197-.47 1.643a2.585 2.585 0 0 1-1.22.924zm-.651-2.024c.06-.157.092-.34.092-.554 0-.213-.032-.399-.092-.558a1.042 1.042 0 0 0-.27-.402 1.155 1.155 0 0 0-.454-.25 2.234 2.234 0 0 0-.656-.085h-1.718v2.564h1.718c.253 0 .472-.028.657-.083.185-.055.335-.135.454-.241a.983.983 0 0 0 .269-.391z"/></g><g><path fill="#fff" d="M34.149 5.39l3.525 9.394h-2.061l-.707-1.844h-3.808l-.707 1.844H28.33l3.525-9.394zm-2.517 5.857h2.74l-1.37-3.722z"/></g><g><path fill="#fff" d="M55.196 7.403c.184.453.283.973.3 1.557.018.504.027.877.027 1.121 0 .237-.01.605-.027 1.108-.017.598-.114 1.125-.293 1.58-.179.456-.44.84-.78 1.148a3.332 3.332 0 0 1-1.219.69c-.116.038-.235.071-.359.1-.378.086-.79.13-1.24.13-.453 0-.868-.044-1.248-.13a4.38 4.38 0 0 1-.36-.1 3.502 3.502 0 0 1-.658-.287 2.994 2.994 0 0 1-1.334-1.552c-.178-.454-.275-.981-.292-1.579-.01-.253-.013-.622-.013-1.108 0-.494.004-.867.013-1.12.017-.585.116-1.104.298-1.558.182-.453.448-.84.795-1.157a3.403 3.403 0 0 1 1.222-.71c.12-.04.243-.076.37-.106.37-.087.772-.13 1.207-.13.431 0 .83.043 1.199.13.127.03.25.065.369.106.466.157.874.394 1.223.71.35.316.617.703.8 1.157zm-1.756 3.716c.017-.52.026-.87.026-1.05 0-.198-.009-.549-.026-1.052a3.092 3.092 0 0 0-.155-.906 1.658 1.658 0 0 0-.379-.63 1.607 1.607 0 0 0-.57-.374 2.015 2.015 0 0 0-.731-.126c-.277 0-.524.042-.742.126a1.598 1.598 0 0 0-.573.375 1.634 1.634 0 0 0-.376.629 3.023 3.023 0 0 0-.145.906c-.008.25-.013.601-.013 1.051 0 .442.005.793.013 1.051v.001c.009.349.057.651.144.906.086.255.21.464.37.63.163.166.353.29.571.374.22.083.47.126.75.126.282 0 .531-.042.75-.125.218-.082.405-.205.565-.37.158-.162.282-.37.37-.627.087-.256.138-.561.15-.915z"/></g><g><path fill="#fff" d="M39.54 5.43h7.093v1.741l-5.114.006v2.271h3.319v1.734h-3.319v3.524H39.54z"/></g><g><path fill="#fff" d="M24.94 9.86c.466.221.815.504 1.042.85.228.347.34.786.34 1.31 0 .578-.16 1.087-.479 1.514-.318.426-.766.75-1.337.972-.57.22-1.228.33-1.972.33-.394 0-.76-.029-1.1-.089-.339-.06-.65-.149-.934-.269a3.452 3.452 0 0 1-.966-.592 2.475 2.475 0 0 1-.216-.218l-.052-.061a1.877 1.877 0 0 1-.084-.11l-.031-.044-.015-.021-.036-.054a2.671 2.671 0 0 1-.165-.3l-.005-.01a1.588 1.588 0 0 1-.055-.134l-.016-.043a1.46 1.46 0 0 1-.046-.142l-.003-.012a3.388 3.388 0 0 1-.12-.87h1.997a2.155 2.155 0 0 0 .069.296l.004.013c.08.273.26.502.555.693.287.187.692.286 1.219.285.596 0 1.037-.101 1.322-.29a.962.962 0 0 0 .317-.332.889.889 0 0 0 .105-.435.768.768 0 0 0-.053-.29.684.684 0 0 0-.155-.234c-.143-.143-.369-.275-.677-.389a16.446 16.446 0 0 0-1.4-.42c-1.029-.245-1.788-.568-2.281-.98a1.966 1.966 0 0 1-.56-.762 2.641 2.641 0 0 1-.186-1.021c0-.519.144-.987.431-1.396.288-.41.698-.729 1.225-.96.528-.23 1.14-.345 1.834-.345.728 0 1.362.128 1.9.386.461.221.831.492 1.106.814a2.845 2.845 0 0 1 .122.156l.042.06.009.013c.112.165.202.331.268.497l.005.014a1.236 1.236 0 0 1 .043.122l.014.048a2.556 2.556 0 0 1 .048.207c.032.169.047.359.04.573h-2.07a1.29 1.29 0 0 0-.022-.34.738.738 0 0 0-.11-.269l-.003-.005-.024-.036a1.153 1.153 0 0 0-.324-.291c-.278-.176-.624-.266-1.044-.266-.466 0-.823.09-1.076.258a.81.81 0 0 0-.278.302.904.904 0 0 0-.092.419.76.76 0 0 0 .186.528c.124.14.33.272.616.386.289.115.715.246 1.275.393.773.174 1.39.37 1.854.591z"/></g><g><path fill="#fff" d="M11.946 2.35a6.704 6.704 0 0 1 1.664 4.535 6.74 6.74 0 0 1-.213 1.59c-.053.224-.11.446-.17.667l-.035-.012-1.943-.652a22.4 22.4 0 0 0 .184-.746c.063-.305.097-.622.097-.946 0-2.546-2.05-4.61-4.58-4.61-2.105 0-3.878 1.43-4.413 3.379A4.636 4.636 0 0 0 2.6 8.226l6.972 2.34.886.297 1.39.467.59.198a23.047 23.047 0 0 1-.843 1.887 23.015 23.015 0 0 1-3.185 4.767c-.46.532-.943 1.042-1.45 1.53a23.116 23.116 0 0 1-4.898-6.804l2.896.97a20.979 20.979 0 0 0 2.008 2.776l.195-.233a21.117 21.117 0 0 0 2.417-3.644l-6.139-1.94-2.268-.718-.232-.073A22.674 22.674 0 0 1 .459 8.3H.46a6.763 6.763 0 0 1-.17-1.515A6.702 6.702 0 0 1 1.938 2.37 6.626 6.626 0 0 1 6.951.08c1.989 0 3.774.878 4.995 2.27z"/></g><g><path fill="#fff" d="M4.543 6.239A2.501 2.501 0 0 1 6.94 4.43a2.506 2.506 0 0 1 2.498 2.514c0 .311-.057.609-.16.884l-.023-.007L4.52 6.323l.023-.084z"/></g></g></svg>