<svg xmlns="http://www.w3.org/2000/svg" width="94" height="59" viewBox="0 0 94 59"><g><g><path fill="#343640" d="M93.877 32.869L91.11 48.446a1.469 1.469 0 0 1-1.45 1.207h-5.053c-.016.117-.033.234-.053.351C83.67 54.964 78.879 59 73.87 59c-2.517 0-4.732-.98-6.238-2.761-1.5-1.775-2.1-4.108-1.701-6.586H36.128c-.016.117-.033.234-.053.351C35.193 54.964 30.4 59 25.392 59c-2.517 0-4.732-.98-6.237-2.76-1.501-1.775-2.1-4.11-1.702-6.586h-7.67c-.844 0-1.628-.354-2.149-.97-.526-.622-.742-1.461-.593-2.302l.526-2.96H1.472A1.466 1.466 0 0 1 0 41.963c0-.806.659-1.46 1.472-1.46H17.17c.812 0 1.471.654 1.471 1.46 0 .807-.659 1.46-1.471 1.46h-6.615l-.588 3.31h8.44c1.823-3.61 5.716-6.23 9.752-6.23 2.516 0 4.731.98 6.237 2.76a7.644 7.644 0 0 1 1.664 3.47h27.245l2-11.254a1.47 1.47 0 0 1 1.705-1.185c.8.14 1.335.897 1.194 1.691l-1.91 10.748h.592c1.822-3.61 5.715-6.23 9.75-6.23 2.517 0 4.732.98 6.237 2.76a7.645 7.645 0 0 1 1.664 3.47h3.886l1.142-6.425H88.18c-1.254 0-2.41-.517-3.171-1.418-.772-.913-1.087-2.157-.864-3.412l.553-3.115a1.469 1.469 0 0 1 1.45-1.207h4.889c-.067-.776-.345-1.477-.822-2.04-.692-.82-1.743-1.27-2.96-1.27h-.002-17.602l-.339 1.909a1.472 1.472 0 0 1-1.705 1.184 1.461 1.461 0 0 1-1.194-1.691L71.091 2.92H18.088c-.14 0-.366.176-.397.35l-4.706 26.483a1.469 1.469 0 0 1-1.705 1.184 1.461 1.461 0 0 1-1.194-1.691l4.706-26.482C15.067 1.215 16.515 0 18.088 0h53.188c.845 0 1.628.354 2.149.97.526.622.742 1.461.593 2.302l-.526 2.96h10.805c1.687 0 3.176.661 4.194 1.864 1.018 1.204 1.432 2.852 1.135 4.522l-.277 1.558a1.469 1.469 0 0 1-1.435 1.207l.718 9.667c1.528.28 2.861 1.031 3.838 2.187 1.283 1.517 1.783 3.517 1.407 5.632zm-8.206-7.945l-.708-9.541H71.866l-1.695 9.541zm.564-14.95c-.448-.53-1.136-.822-1.938-.822H72.973l-.588 3.31h14.28l.062-.35c.148-.83-.027-1.59-.492-2.138zM32.142 45.14c-.936-1.107-2.35-1.717-3.982-1.717-3.648 0-7.14 2.952-7.784 6.582-.297 1.67.07 3.218 1.033 4.357.937 1.108 2.351 1.717 3.983 1.717 3.647 0 7.14-2.952 7.784-6.581.297-1.671-.07-3.218-1.034-4.358zm48.478 0c-.937-1.107-2.351-1.717-3.983-1.717-3.647 0-7.139 2.952-7.784 6.582-.297 1.67.07 3.217 1.034 4.357.937 1.108 2.351 1.717 3.982 1.717 3.648 0 7.14-2.952 7.785-6.582.296-1.67-.07-3.217-1.034-4.357zm10.053-11.063h-3.29l-.34 1.908c-.072.409.006.774.22 1.027.208.245.525.374.917.374h1.905zM29.795 50.005c-.276 1.55-1.723 2.764-3.296 2.764-.845 0-1.628-.353-2.15-.97-.526-.622-.742-1.461-.593-2.301.276-1.551 1.724-2.765 3.296-2.765.846 0 1.629.353 2.15.97.526.622.743 1.46.593 2.302zm48.478 0c-.276 1.55-1.723 2.764-3.296 2.764-.845 0-1.629-.353-2.15-.97-.526-.622-.742-1.461-.593-2.302.276-1.55 1.724-2.764 3.296-2.764.845 0 1.629.353 2.15.97.526.622.742 1.46.593 2.302zM60.84 41.962c0 .807-.66 1.46-1.472 1.46h-18.65a1.466 1.466 0 0 1-1.472-1.46c0-.806.66-1.46 1.472-1.46h18.65c.813 0 1.471.654 1.472 1.46zm-26.5-6.23c0 .806-.659 1.46-1.471 1.46H5.719a1.466 1.466 0 0 1-1.472-1.46c0-.807.659-1.461 1.472-1.461h27.15c.813 0 1.472.654 1.472 1.46zm27.141-6.138c-.03.456-.272.872-.656 1.124l-7.11 4.673a1.473 1.473 0 0 1-2.04-.411 1.453 1.453 0 0 1 .415-2.024l3.035-1.995H18.74a1.466 1.466 0 0 1-1.471-1.46c0-.807.659-1.461 1.471-1.461h37.32l-2.458-2.108a1.452 1.452 0 0 1-.151-2.06 1.48 1.48 0 0 1 2.076-.15l5.449 4.673c.348.299.535.742.506 1.199z"/></g></g></svg>