<svg xmlns="http://www.w3.org/2000/svg" width="14" height="20" viewBox="0 0 14 20"><g><g><path fill="#fff" d="M11.946 2.35a6.704 6.704 0 0 1 1.664 4.535 6.74 6.74 0 0 1-.213 1.59c-.053.224-.11.446-.17.667l-.035-.012-1.943-.652a22.4 22.4 0 0 0 .184-.746c.063-.305.097-.622.097-.946 0-2.546-2.05-4.61-4.58-4.61-2.105 0-3.878 1.43-4.413 3.379A4.636 4.636 0 0 0 2.6 8.226l6.972 2.34.886.297 1.39.467.59.198a23.047 23.047 0 0 1-.843 1.887 23.015 23.015 0 0 1-3.185 4.767c-.46.532-.943 1.042-1.45 1.53a23.116 23.116 0 0 1-4.898-6.804l2.896.97a20.979 20.979 0 0 0 2.008 2.776l.195-.233a21.117 21.117 0 0 0 2.417-3.644l-6.139-1.94-2.268-.718-.232-.073A22.674 22.674 0 0 1 .459 8.3H.46a6.763 6.763 0 0 1-.17-1.515A6.702 6.702 0 0 1 1.938 2.37 6.626 6.626 0 0 1 6.951.08c1.989 0 3.774.878 4.995 2.27z"/></g><g><path fill="#fff" d="M4.543 6.239A2.501 2.501 0 0 1 6.94 4.43a2.506 2.506 0 0 1 2.498 2.514c0 .311-.057.609-.16.884l-.023-.007L4.52 6.323l.023-.084z"/></g></g></svg>